<?xml version="1.0" standalone="no"?>
<!DOCTYPE svg PUBLIC "-//W3C//DTD SVG 20010904//EN"
 "http://www.w3.org/TR/2001/REC-SVG-20010904/DTD/svg10.dtd">
<svg version="1.0" xmlns="http://www.w3.org/2000/svg"
 width="225.000000pt" height="225.000000pt" viewBox="0 0 225.000000 225.000000"
 preserveAspectRatio="xMidYMid meet">

<g transform="translate(0.000000,225.000000) scale(0.100000,-0.100000)"
fill="#000000" stroke="none">
<path d="M1047 2046 c-55 -20 -111 -62 -141 -104 -24 -36 -46 -84 -46 -102 0
-11 140 62 188 97 30 22 72 88 72 113 0 14 -27 12 -73 -4z"/>
<path d="M1165 2033 c12 -51 59 -96 156 -149 52 -28 96 -50 97 -49 2 2 -6 25
-18 52 -29 67 -93 129 -158 153 -74 28 -86 27 -77 -7z"/>
<path d="M1095 1966 c-20 -27 -59 -55 -119 -88 -123 -67 -129 -73 -123 -128 3
-25 11 -58 17 -75 11 -28 12 -29 22 -10 21 39 64 77 119 105 93 48 125 101
117 196 l-3 40 -30 -40z"/>
<path d="M1150 1950 c0 -92 20 -124 106 -172 80 -46 100 -62 124 -101 l18 -29
10 34 c34 111 27 125 -93 188 -89 47 -119 71 -146 115 l-19 30 0 -65z"/>
<path d="M1102 1819 c-12 -15 -50 -43 -85 -62 -64 -36 -96 -65 -116 -105 -10
-19 -9 -27 9 -52 20 -28 79 -76 83 -69 2 2 10 20 19 41 9 20 35 50 57 68 50
41 63 72 59 147 l-3 59 -23 -27z"/>
<path d="M1150 1770 l0 -73 59 -55 c37 -33 62 -65 66 -83 4 -16 10 -29 15 -29
18 0 90 84 90 105 0 36 -45 81 -121 121 -39 20 -79 48 -89 62 l-20 25 0 -73z"/>
<path d="M1081 1633 c-36 -31 -71 -83 -71 -108 0 -10 68 -35 95 -35 25 0 25 0
25 90 0 50 -1 90 -2 90 -2 0 -23 -17 -47 -37z"/>
<path d="M1150 1581 c0 -91 0 -91 25 -91 14 0 42 7 61 15 30 12 34 18 29 37
-11 37 -31 63 -74 97 l-41 33 0 -91z"/>
<path d="M123 1286 l-28 -24 -3 -175 -3 -174 26 -31 c22 -27 34 -32 69 -32 63
0 89 32 92 113 l3 62 -10 -55 c-5 -30 -16 -64 -24 -76 -33 -50 -111 -35 -132
26 -15 43 -17 262 -3 312 12 42 34 58 77 58 45 0 65 -21 79 -86 l14 -59 -4 59
c-2 50 -7 63 -30 83 -36 31 -86 30 -123 -1z"/>
<path d="M436 1299 c-3 -8 -28 -106 -57 -218 -28 -112 -53 -210 -56 -218 -3
-7 0 -13 5 -13 6 0 16 25 23 55 l12 55 82 0 82 0 13 -55 c7 -30 17 -55 23 -55
5 0 7 6 5 13 -3 6 -29 106 -58 222 -53 208 -65 242 -74 214z m48 -179 c20 -74
36 -138 36 -142 0 -11 -138 -10 -144 0 -4 7 15 92 55 246 6 21 12 36 14 34 2
-2 20 -64 39 -138z"/>
<path d="M662 1300 c-24 -10 -52 -64 -52 -101 0 -40 32 -88 79 -118 76 -49 96
-76 96 -128 0 -37 -5 -49 -29 -70 -55 -47 -126 -9 -126 68 0 22 -5 39 -11 39
-8 0 -10 -16 -6 -47 4 -35 12 -53 32 -70 26 -23 75 -30 110 -17 23 9 45 57 45
99 0 53 -23 88 -80 125 -67 43 -90 74 -90 120 0 51 32 90 74 90 44 0 64 -17
81 -70 l14 -45 0 38 c2 71 -67 115 -137 87z"/>
<path d="M956 1299 c-22 -64 -112 -449 -105 -449 4 0 13 19 19 43 6 23 13 48
15 55 3 8 29 12 84 12 l80 0 12 -55 c7 -30 16 -55 21 -55 11 0 15 -17 -48 227
-55 213 -68 251 -78 222z m49 -178 c19 -72 35 -135 35 -141 0 -10 -132 -15
-142 -5 -3 3 10 69 30 146 19 77 36 138 39 136 2 -3 19 -63 38 -136z"/>
<path d="M1220 1300 c0 -5 23 -10 50 -10 l50 0 0 -220 c0 -140 4 -220 10 -220
6 0 10 80 10 220 l0 220 51 0 c31 0 48 4 44 10 -3 6 -52 10 -111 10 -63 0
-104 -4 -104 -10z"/>
<path d="M1470 1080 l0 -230 90 0 c53 0 90 4 90 10 0 6 -33 10 -80 10 l-80 0
0 100 0 100 65 0 c37 0 65 4 65 10 0 6 -28 10 -65 10 l-65 0 0 100 0 100 81 0
c51 0 78 4 74 10 -3 6 -44 10 -91 10 l-84 0 0 -230z"/>
<path d="M1694 1080 c0 -142 2 -196 5 -138 4 69 11 102 22 113 15 15 34 -8
161 -199 4 -6 9 -8 13 -5 3 3 -29 56 -71 118 -42 63 -73 118 -70 126 3 8 32
54 64 102 74 112 75 113 64 113 -5 0 -45 -54 -88 -120 -44 -66 -82 -120 -86
-120 -4 0 -9 55 -11 123 -1 67 -3 16 -3 -113z"/>
<path d="M2057 1303 c-3 -5 -29 -101 -57 -214 -28 -112 -53 -212 -56 -221 -3
-10 -1 -18 5 -18 5 0 15 25 22 55 l12 55 82 0 82 0 12 -55 c7 -30 17 -55 23
-55 5 0 8 6 5 14 -3 8 -29 106 -58 218 -53 210 -62 237 -72 221z m48 -189 c18
-70 31 -132 29 -136 -6 -9 -144 -11 -144 -2 0 6 44 181 62 249 6 22 12 35 15
29 2 -6 19 -69 38 -140z"/>
<path d="M571 613 c1 -43 2 -45 9 -18 6 23 8 25 9 8 0 -12 6 -25 13 -29 8 -5
9 0 4 17 -4 13 -10 34 -13 47 -9 39 -23 24 -22 -25z"/>
<path d="M615 637 c-3 -12 -2 -34 4 -47 9 -22 10 -19 10 23 1 51 -5 61 -14 24z"/>
<path d="M697 643 c-15 -55 -17 -74 -7 -68 5 3 10 20 10 37 0 37 7 34 14 -6 3
-16 8 -31 12 -35 4 -3 4 9 0 28 -3 18 -6 40 -6 47 0 20 -18 17 -23 -3z"/>
<path d="M781 615 l1 -50 8 40 c5 22 4 44 -1 50 -5 5 -9 -11 -8 -40z"/>
<path d="M877 653 c-11 -11 -8 -68 5 -81 8 -8 15 -9 25 -1 14 13 18 49 5 49
-5 0 -8 -8 -8 -17 1 -10 -3 -18 -9 -18 -5 0 -10 17 -10 38 0 20 0 37 -1 37 0
0 -4 -3 -7 -7z"/>
<path d="M906 647 c3 -10 9 -15 12 -12 3 3 0 11 -7 18 -10 9 -11 8 -5 -6z"/>
<path d="M961 613 c0 -39 2 -44 9 -25 5 12 12 22 15 22 3 0 10 -10 14 -22 7
-18 9 -13 7 22 -1 39 -4 45 -23 48 -21 3 -23 0 -22 -45z m39 22 c0 -8 -7 -15
-15 -15 -8 0 -15 7 -15 15 0 8 7 15 15 15 8 0 15 -7 15 -15z"/>
<path d="M1062 619 c-2 -50 3 -60 24 -52 15 6 21 93 6 93 -5 0 -7 -13 -4 -30
2 -16 1 -38 -4 -47 -6 -13 -10 -5 -14 32 l-7 50 -1 -46z"/>
<path d="M1151 649 c-2 -30 11 -79 21 -79 6 0 7 8 3 18 -4 9 -11 31 -15 47 -4
17 -8 23 -9 14z"/>
<path d="M1184 646 c-3 -8 -4 -23 -2 -33 3 -11 6 -6 9 15 6 34 2 42 -7 18z"/>
<path d="M1240 615 c0 -25 4 -45 9 -45 5 0 7 9 4 19 -3 13 1 21 14 24 16 4 16
5 1 6 -10 0 -18 7 -18 15 0 8 8 17 18 19 13 4 11 5 -5 6 -21 1 -23 -4 -23 -44z"/>
<path d="M1390 643 c0 -9 7 -24 16 -34 9 -10 13 -23 9 -29 -6 -9 -10 -9 -16 1
-5 8 -9 9 -9 3 0 -16 10 -23 26 -17 18 7 18 37 -1 53 -8 7 -15 17 -15 22 0 6
7 8 15 4 8 -3 15 -1 15 4 0 6 -9 10 -20 10 -12 0 -20 -7 -20 -17z"/>
<path d="M1490 613 l5 -48 3 40 c2 22 9 43 15 47 8 5 5 8 -8 8 -18 0 -20 -5
-15 -47z"/>
<path d="M1577 654 c-4 -4 -7 -17 -6 -28 0 -21 1 -21 9 -1 7 17 9 15 9 -12 1
-17 5 -34 10 -38 6 -3 8 10 4 32 -6 41 -15 57 -26 47z"/>
<path d="M1667 630 c8 -42 18 -42 26 0 2 14 2 19 0 13 -3 -7 -8 -13 -13 -13
-5 0 -10 6 -13 13 -2 6 -2 1 0 -13z"/>
<path d="M800 608 c0 -7 5 -20 10 -28 8 -12 10 -11 10 7 0 12 -4 25 -10 28 -5
3 -10 0 -10 -7z"/>
<path d="M1560 585 c0 -8 2 -15 4 -15 2 0 6 7 10 15 3 8 1 15 -4 15 -6 0 -10
-7 -10 -15z"/>
<path d="M954 425 c-4 -9 -4 -26 -2 -40 5 -22 1 -24 -36 -28 l-41 -4 43 -1
c40 -2 44 -5 61 -43 17 -38 19 -39 23 -15 3 14 1 23 -3 20 -4 -2 -13 5 -19 16
-9 17 -8 20 9 20 11 0 22 -6 24 -12 4 -10 6 -10 6 0 2 21 -3 26 -29 26 -21 1
-26 7 -28 33 -3 26 0 32 12 27 8 -3 18 -15 22 -26 3 -11 8 -17 11 -14 8 7 -25
56 -38 56 -5 0 -12 -7 -15 -15z"/>
<path d="M1090 425 c-12 -15 -12 -25 6 -76 14 -39 17 -60 10 -63 -6 -2 -3 -5
6 -5 9 -1 19 -7 22 -13 3 -7 3 -3 1 9 -3 12 -1 24 5 28 5 3 10 11 10 18 0 6
-6 2 -14 -8 -12 -17 -15 -14 -31 34 -26 79 -1 110 31 37 7 -17 13 -23 14 -14
0 9 -10 29 -23 44 -21 24 -24 25 -37 9z"/>
<path d="M1030 292 c0 -14 22 -20 44 -12 13 4 16 9 9 13 -7 4 -15 3 -18 -3 -5
-8 -11 -7 -21 1 -8 7 -14 7 -14 1z"/>
<path d="M1161 285 c14 -14 21 -15 35 -6 11 7 13 10 4 8 -8 -2 -24 0 -35 6
-19 9 -19 8 -4 -8z"/>
<path d="M1240 290 c-16 -11 -19 -10 72 -13 36 -2 44 1 36 11 -8 9 -14 9 -23
2 -9 -8 -15 -8 -20 0 -5 8 -11 8 -19 1 -8 -7 -16 -7 -22 -1 -6 6 -15 6 -24 0z"/>
</g>
</svg>
